<svg xmlns="http://www.w3.org/2000/svg" aria-hidden="true" viewBox="0 0 410 404">
  <defs>
    <linearGradient id="a" x1="6%" x2="235%" y1="33%" y2="91%">
      <stop offset="0%" stop-color="#41D1FF" />
      <stop offset="100%" stop-color="#BD34FE" />
    </linearGradient>
    <linearGradient id="b" x1="43%" x2="50%" y1="2%" y2="89%">
      <stop offset="0%" stop-color="#FFEA83" />
      <stop offset="8%" stop-color="#FFDD35" />
      <stop offset="100%" stop-color="#FFA800" />
    </linearGradient>
  </defs>
  <path
    fill="url(#a)"
    d="M399.641 59.524L215.643 388.545c-3.44 6.148-12.262 6.153-15.709.01L10.037 59.534c-3.767-6.53 1.826-14.247 9.283-12.8l184.097 35.721a8.089 8.089 0 0 0 3.083-.003l183.132-35.708c7.45-1.453 13.05 6.247 9.309 12.78Z"
  />
  <path
    fill="url(#b)"
    d="M292.965.195L156.913 26.86a4.043 4.043 0 0 0-3.237 3.237l-8.363 46.118a4.043 4.043 0 0 0 4.66 4.73l37.87-7.357a4.043 4.043 0 0 1 4.682 4.748l-11.247 55.054a4.043 4.043 0 0 0 4.822 4.733l23.387-5.053a4.043 4.043 0 0 1 4.863 4.695l-17.883 87.977c-1.118 5.5 6.198 8.5 9.286 3.809l2.063-3.134 110.862-221.29c1.856-3.708-1.35-7.938-5.44-7.138Z"
  />
</svg>
