<svg xmlns="http://www.w3.org/2000/svg" aria-label="Vite logo" viewBox="0 0 410 404"><path fill="#41D1FF" d="M399.641 59.524L215.643 388.545c-3.51 6.273-12.548 6.31-16.108.066L10.24 59.547c-3.838-6.674 1.876-14.746 9.433-13.328l184.992 34.704a9 9 0 0 0 3.324-.01l182.183-34.662c7.541-1.434 13.275 6.602 9.47 13.273Z"/><path fill="#BD34FE" d="M292.965.963L156.742 27.637a4.5 4.5 0 0 0-3.64 3.72l-8.39 141.898a4.5 4.5 0 0 0 5.463 4.66l37.916-8.757c3.548-.82 6.756 2.304 5.588 5.753L182.42 208.36a4.5 4.5 0 0 0 5.724 5.658l23.411-7.188c3.561-1.093 6.982 2.058 6.187 5.698l-17.9 82.003c-1.12 5.131 5.698 7.93 8.468 3.477l1.85-2.974 111.005-221.6c1.855-3.704-1.347-7.886-5.453-7.115l-39.039 7.522c-3.67.707-6.792-2.708-5.626-6.258l25.483-77.345c1.167-3.543-1.945-6.964-5.565-6.255Z"/></svg>
